<?xml version="1.0" encoding="utf-8"?>
<!-- Generator: Adobe Illustrator 16.2.1, SVG Export Plug-In . SVG Version: 6.00 Build 0)  -->
<!DOCTYPE svg PUBLIC "-//W3C//DTD SVG 1.1//EN" "http://www.w3.org/Graphics/SVG/1.1/DTD/svg11.dtd">
<svg version="1.1" id="レイヤー_1" xmlns="http://www.w3.org/2000/svg" xmlns:xlink="http://www.w3.org/1999/xlink" x="0px"
	 y="0px" width="45px" height="29px" viewBox="0 0 45 29" enable-background="new 0 0 45 29" xml:space="preserve">
<g>
	<path fill-rule="evenodd" clip-rule="evenodd" fill="#5A5A5A" d="M39.51,0c-1.46,0.4-2.89,1-4.3,1.8c-1.41,0.8-2.76,1.7-4.06,2.72
		c-1.29,1.01-2.52,2.08-3.67,3.21c-1.15,1.14-2.21,2.25-3.18,3.34c-0.68,0.77-1.31,1.49-1.89,2.18c-0.41-1.27-0.69-2.09-0.69-2.09
		s-1.64-3.61-0.38,0l0.09,0.24c0.25,0.73,0.47,1.46,0.68,2.2l-0.43,0.51c-0.77,0.93-1.41,1.72-1.92,2.36
		c-1.19,1.44-2.43,2.84-3.73,4.21c-1.3,1.38-2.61,2.6-3.92,3.68s-2.65,2.17-3.94,2.83c-1.28,0.67-2.74,1.08-3.91,1.08
		c-0.46,0-0.85,0.01-1.29-0.11c-0.43-0.12-0.71-0.34-0.82-0.89c0.24-0.05,0.43-0.2,0.57-0.44c0.13-0.24,0.2-0.48,0.2-0.72
		c0-0.4-0.12-0.74-0.37-1.04c-0.24-0.29-0.58-0.43-1.01-0.43c-0.49,0-0.86,0.16-1.13,0.47C0.14,25.44,0,25.82,0,26.27
		c0,0.24,0.05,0.52,0.14,0.82c0.1,0.31,0.29,0.6,0.57,0.88c0.28,0.28,0.69,0.52,1.22,0.72c0.52,0.2,1.23,0.3,2.13,0.3
		c1.29,0,2.65-0.35,4.05-1.06c1.41-0.7,2.87-1.86,4.29-3.05c1.42-1.18,2.83-2.54,4.24-4.08c1.4-1.53,2.77-3.12,4.09-4.77l0.43-0.55
		l1.09-1.36c1.22,4.57,1.69,9.02,1.81,10.34l0.02,0.3l0.01,0.1v0.01c0.06,0.46,0.18,0.97,0.36,1.49c0.55,1.64,1.31,2.76,2.1,2.63
		c0.82-0.13,1.03-1.16,0.39-2.31c-0.07-0.15-0.14-0.33-0.18-0.5l-0.07-0.35c-0.05-0.3-0.08-0.62-0.08-0.97c0-1.2,0.2-2.52,0.59-3.96
		c0.39-1.44,0.92-2.93,1.58-4.49c0.67-1.56,1.43-3.13,2.29-4.7c0.87-1.57,1.78-3.07,2.74-4.5c0.96-1.42,1.94-2.75,2.94-3.97
		c1-1.23,1.96-2.25,2.88-3.08L39.51,0z M24.48,20.86l-0.06-0.25c-0.52-2.41-1.28-5.01-1.86-6.87c0.68-0.83,1.36-1.65,2.09-2.47
		c1.23-1.38,2.49-2.69,3.79-3.91c1.29-1.23,2.63-2.35,3.99-3.36c1.37-1.01,2.77-1.87,4.2-2.56l0.08,0.08
		c-2.27,2.13-4.24,4.38-5.9,6.75c-1.66,2.38-3.1,4.8-4.32,7.28l-0.2,0.48c-0.54,1.36-1.03,2.73-1.46,4.13l-0.13,0.47l-0.06,0.23
		H24.48z"/>
	<path fill="#5A5A5A" d="M12.25,22.26c3.8,0.61,8.09,0.83,12.61,0.55c7.3-0.46,11.64-1.19,18.49-3.89l1.65-0.4l-0.12,0.06
		c-4.98,2.45-11.91,4.17-19.28,4.63c-5.07,0.32-9.87,0.05-14.03-0.7h-0.03c-4.26-0.72-7.5-4.38-7.5-8.78c0-4.92,4.04-8.9,9.03-8.9
		c4.14,0,7.64,2.74,8.7,6.49l-0.34,0.08c-1.15-3.19-4.24-5.47-7.87-5.47c-4.61,0-8.34,3.68-8.34,8.22c0,4.09,3.03,7.48,7,8.12
		L12.25,22.26z"/>
</g>
</svg>
