<?xml version="1.0" encoding="utf-8"?>
<!-- Generator: Adobe Illustrator 16.2.1, SVG Export Plug-In . SVG Version: 6.00 Build 0)  -->
<!DOCTYPE svg PUBLIC "-//W3C//DTD SVG 1.1//EN" "http://www.w3.org/Graphics/SVG/1.1/DTD/svg11.dtd">
<svg version="1.1" id="レイヤー_1" xmlns="http://www.w3.org/2000/svg" xmlns:xlink="http://www.w3.org/1999/xlink" x="0px"
	 y="0px" width="110.513px" height="50px" viewBox="11.046 4.998 110.513 50" enable-background="new 11.046 4.998 110.513 50"
	 xml:space="preserve">
<path fill="#949595" d="M96.556,54.997c-13.784,0-25-11.214-25-24.999S82.772,4.998,96.557,4.998s25.001,11.216,25.001,25.001
	C121.558,43.784,110.343,54.997,96.556,54.997z M96.556,5.504c-13.505,0-24.493,10.988-24.493,24.495
	c0,13.506,10.988,24.495,24.494,24.495c13.507,0,24.497-10.989,24.497-24.495C121.052,16.492,110.063,5.504,96.556,5.504z"/>
<path fill="#949595" d="M91.466,18.67l13.482,11.329L91.466,41.325l0.285,0.34l13.876-11.667L91.751,18.331L91.466,18.67z"/>
<path fill="#949595" d="M11.046,29.999c0-13.785,11.216-25.001,25.001-25.001c13.785,0,25,11.216,25,25.001
	c0,13.786-11.214,24.999-25,24.999C22.261,54.997,11.046,43.783,11.046,29.999z M11.551,29.999
	c0,13.506,10.989,24.495,24.497,24.495c13.506,0,24.495-10.989,24.495-24.495c0-13.506-10.988-24.495-24.495-24.495
	C22.54,5.504,11.551,16.492,11.551,29.999z"/>
<path fill="#949595" d="M40.854,18.33L26.976,29.998l13.878,11.667l0.284-0.34L27.656,29.999L41.137,18.67L40.854,18.33z"/>
</svg>
