<?xml version="1.0" encoding="utf-8"?>
<!-- Generator: Adobe Illustrator 16.2.1, SVG Export Plug-In . SVG Version: 6.00 Build 0)  -->
<!DOCTYPE svg PUBLIC "-//W3C//DTD SVG 1.1//EN" "http://www.w3.org/Graphics/SVG/1.1/DTD/svg11.dtd">
<svg version="1.1" id="レイヤー_1" xmlns="http://www.w3.org/2000/svg" xmlns:xlink="http://www.w3.org/1999/xlink" x="0px"
	 y="0px" width="210.996px" height="87.213px" viewBox="-11.011 -146.87 210.996 87.213"
	 enable-background="new -11.011 -146.87 210.996 87.213" xml:space="preserve">
<g>
	<path fill="#5A5A5A" d="M37.133-105.226c-0.034-0.172-0.073-0.337-0.103-0.506c-1.031-4.797-2.524-9.987-3.671-13.708
		c1.328-1.66,2.665-3.288,4.103-4.929c2.418-2.764,4.905-5.37,7.457-7.816c2.553-2.447,5.171-4.681,7.857-6.703
		c2.687-2.023,5.437-3.726,8.257-5.108l0.159,0.161c-4.466,4.254-8.337,8.749-11.604,13.479c-3.271,4.737-6.102,9.574-8.496,14.524
		c0,0-0.367,0.874-0.396,0.957c-1.067,2.714-2.023,5.465-2.873,8.256c-0.095,0.308-0.18,0.618-0.264,0.927
		c-0.039,0.153-0.077,0.305-0.112,0.459 M66.697-146.87c-2.873,0.8-5.691,1.998-8.457,3.592c-2.765,1.595-5.424,3.404-7.975,5.426
		c-2.553,2.023-4.959,4.162-7.221,6.424c-2.261,2.261-4.348,4.479-6.26,6.663c-1.345,1.53-2.581,2.976-3.731,4.345
		c-0.787-2.53-1.351-4.175-1.351-4.175s-3.217-7.198-0.734,0c0.056,0.162,0.11,0.324,0.167,0.487
		c0.489,1.446,0.933,2.918,1.337,4.395c-0.281,0.339-0.564,0.681-0.833,1.011c-1.516,1.863-2.781,3.429-3.788,4.706
		c-2.343,2.871-4.787,5.68-7.34,8.417c-2.552,2.742-5.116,5.187-7.697,7.342c-2.58,2.153-5.223,4.322-7.747,5.651
		c-2.529,1.331-5.403,2.155-7.69,2.155c-0.905,0-1.691,0.018-2.542-0.22s-1.4-0.69-1.617-1.775c0.477-0.109,0.851-0.4,1.116-0.878
		c0.267-0.477,0.4-0.954,0.4-1.436c0-0.798-0.241-1.489-0.719-2.075c-0.478-0.586-1.144-0.877-1.997-0.877
		c-0.955,0-1.702,0.318-2.231,0.957c-0.531,0.641-0.799,1.413-0.799,2.314c0,0.48,0.094,1.025,0.281,1.639
		c0.186,0.61,0.561,1.195,1.118,1.75c0.558,0.559,1.356,1.036,2.394,1.436c1.035,0.398,2.434,0.598,4.188,0.598
		c2.552,0,5.21-0.703,7.978-2.113c2.763-1.411,5.635-3.722,8.426-6.091c2.792-2.367,5.57-5.079,8.333-8.138
		c2.767-3.058,5.453-6.236,8.058-9.536l0.848-1.093c0.722-0.922,1.43-1.822,2.138-2.709c2.396,9.115,3.316,18.009,3.55,20.646
		c0.011,0.191,0.03,0.391,0.053,0.594c0.011,0.124,0.014,0.197,0.014,0.197s0.003,0.009,0.008,0.029
		c0.117,0.91,0.344,1.923,0.695,2.978c1.087,3.256,2.578,5.491,4.139,5.238c1.622-0.259,2.034-2.308,0.769-4.619
		c-0.141-0.288-0.28-0.653-0.354-0.998c-0.056-0.221-0.101-0.451-0.141-0.685c-0.099-0.605-0.148-1.252-0.148-1.943
		c0-2.397,0.385-5.029,1.156-7.903c0.771-2.87,1.809-5.861,3.109-8.974c1.306-3.111,2.806-6.235,4.507-9.377
		c1.7-3.138,3.497-6.128,5.382-8.973c1.889-2.845,3.818-5.49,5.783-7.94c1.968-2.444,3.854-4.492,5.664-6.142L66.697-146.87z"/>
	<path fill="#5A5A5A" d="M32.473-119.456"/>
	<g>
		<path fill="#5A5A5A" d="M112.295-117.849l5.31,0.083c-2.014,2.828-3.946,5.579-5.797,8.246c-1.851,2.667-3.495,5.132-4.94,7.392
			c-1.438,2.261-2.596,4.243-3.468,5.956c-0.869,1.716-1.306,3.066-1.306,4.046c0,1.413,0.733,2.122,2.205,2.122
			c1.146,0,2.596-0.557,4.368-1.679c1.766-1.11,3.688-2.653,5.757-4.61c2.063-1.963,4.192-4.247,6.367-6.86
			c2.178-2.614,4.243-5.39,6.203-8.331l0.49,0.164c-1.469,2.235-3.198,4.643-5.183,7.229c-1.986,2.583-4.073,4.993-6.245,7.227
			c-2.175,2.231-4.358,4.097-6.53,5.594c-2.181,1.498-4.222,2.246-6.127,2.246c-1.578,0-2.734-0.397-3.471-1.183
			c-0.733-0.79-1.103-1.73-1.103-2.818c0-0.762,0.124-1.508,0.369-2.248c0.246-0.731,0.503-1.481,0.775-2.244l-0.163-0.079
			c-0.706,0.759-1.59,1.648-2.653,2.653c-1.061,1.006-2.203,1.948-3.429,2.817c-1.224,0.872-2.489,1.605-3.795,2.204
			c-1.309,0.6-2.56,0.899-3.756,0.899c-2.014,0-3.432-0.625-4.246-1.879c-0.816-1.251-1.224-2.664-1.224-4.243
			c-0.002-2.229,0.704-4.693,2.12-7.389c1.413-2.697,3.21-5.228,5.388-7.596c2.175-2.367,4.544-4.342,7.102-5.923
			c2.558-1.577,4.98-2.366,7.268-2.366c1.087,0,2.041,0.147,2.855,0.448c0.815,0.3,1.497,0.708,2.042,1.224
			c0.545,0.52,0.966,1.101,1.266,1.757c0.297,0.653,0.53,1.333,0.693,2.04h0.164L112.295-117.849z M86.378-92.003
			c0.517,0.682,1.238,1.018,2.164,1.018c0.925,0,2.013-0.336,3.267-1.018c1.251-0.683,2.557-1.593,3.918-2.735
			c1.355-1.146,2.706-2.464,4.038-3.961c1.336-1.498,2.518-3.089,3.553-4.78c1.033-1.684,1.878-3.396,2.532-5.143
			c0.651-1.743,0.976-3.401,0.976-4.979c0-1.254-0.354-2.207-1.057-2.856c-0.712-0.659-1.581-0.981-2.617-0.981
			c-1.633,0-3.459,0.707-5.47,2.125c-2.013,1.417-3.918,3.223-5.714,5.429c-1.796,2.205-3.305,4.645-4.53,7.307
			c-1.225,2.67-1.835,5.228-1.835,7.673C85.603-93.648,85.858-92.683,86.378-92.003z"/>
		<path fill="#5A5A5A" d="M153.359-146.188c-4.465,7.078-8.926,14.031-13.388,20.864c-4.464,6.831-9.089,13.569-13.874,20.211
			l0.163,0.164c1.414-1.581,2.816-3.173,4.204-4.779c1.387-1.604,2.829-3.047,4.325-4.327c1.496-1.28,3.047-2.326,4.652-3.146
			c1.607-0.816,3.279-1.227,5.019-1.227c1.799,0,3.095,0.439,3.88,1.308c0.79,0.871,1.187,1.933,1.187,3.184
			c0,1.305-0.396,2.465-1.184,3.468c-0.788,1.009-1.766,1.881-2.938,2.617c-1.175,0.735-2.45,1.321-3.837,1.754
			c-1.388,0.436-2.653,0.763-3.798,0.983v0.162c0.653,0.327,1.211,0.938,1.675,1.838c0.463,0.896,0.693,1.835,0.693,2.815
			c0,0.654-0.124,1.336-0.363,2.042c-0.245,0.708-0.53,1.443-0.86,2.202c-0.327,0.765-0.615,1.513-0.854,2.246
			c-0.245,0.736-0.363,1.487-0.363,2.248c0,1.036,0.431,1.551,1.303,1.551c1.469,0,3.316-0.654,5.552-1.96
			c2.229-1.305,4.598-3.21,7.103-5.715c1.741-1.743,3.51-3.675,5.306-5.801c1.793-2.122,3.729-4.678,5.798-7.672l0.735,0.489
			c-1.039,1.469-2.547,3.483-4.534,6.042c-1.986,2.558-4.312,5.172-6.98,7.838c-2.557,2.561-4.977,4.493-7.264,5.8
			c-2.286,1.304-4.386,1.958-6.287,1.958c-1.633,0.001-2.896-0.353-3.799-1.062c-0.894-0.706-1.345-1.796-1.345-3.262
			c0-0.764,0.191-1.621,0.569-2.573c0.379-0.953,0.791-1.879,1.221-2.78c0.439-0.894,0.846-1.737,1.229-2.527
			c0.379-0.791,0.57-1.428,0.57-1.919c0-1.036-0.464-1.551-1.388-1.551c-0.545,0-1.185,0.109-1.92,0.326
			c-0.733,0.22-1.563,0.326-2.49,0.326c-0.817,0-1.227-0.243-1.227-0.734c0-0.491,0.409-0.733,1.227-0.733
			c0.324,0,0.694,0.027,1.1,0.081c0.412,0.056,0.915,0.082,1.512,0.082c1.632,0,3.144-0.192,4.531-0.574
			c1.39-0.38,2.599-0.939,3.631-1.672c1.036-0.738,1.842-1.619,2.411-2.653c0.572-1.034,0.86-2.208,0.86-3.515
			c0-1.141-0.272-1.984-0.818-2.529c-0.545-0.543-1.199-0.816-1.962-0.816c-1.036,0-2.232,0.424-3.59,1.262
			c-1.362,0.84-2.819,1.982-4.37,3.421c-1.548,1.439-3.129,3.094-4.734,4.967c-1.604,1.873-3.155,3.824-4.651,5.862
			c-1.5,2.034-2.899,4.072-4.204,6.106c-1.309,2.034-2.905,4.714-3.828,6.506h-5.606c6.042-9.417,12.766-19.453,18.781-28.734
			c6.009-9.279,12.066-18.683,18.157-28.212L153.359-146.188z"/>
		<path fill="#5A5A5A" d="M184.798-117.858l5.307,0.077c-2.015,2.831-3.947,5.579-5.798,8.249c-1.847,2.668-3.495,5.134-4.937,7.389
			c-1.441,2.261-2.599,4.249-3.471,5.962c-0.869,1.714-1.303,3.061-1.303,4.042c0,1.416,0.736,2.122,2.205,2.122
			c1.142,0,2.596-0.554,4.367-1.675c1.767-1.113,3.687-2.653,5.755-4.611c2.068-1.961,4.192-4.25,6.366-6.86
			c2.178-2.614,4.247-5.39,6.203-8.331l0.491,0.165c-1.47,2.231-3.195,4.639-5.186,7.229c-1.98,2.583-4.064,4.993-6.242,7.224
			c-2.178,2.232-4.355,4.098-6.533,5.594c-2.175,1.498-4.216,2.245-6.118,2.249c-1.581,0-2.738-0.397-3.471-1.188
			c-0.736-0.784-1.105-1.726-1.105-2.815c0-0.763,0.124-1.508,0.369-2.244c0.242-0.738,0.5-1.486,0.772-2.245l-0.163-0.083
			c-0.706,0.762-1.591,1.646-2.653,2.653c-1.058,1.009-2.205,1.946-3.426,2.817c-1.227,0.872-2.493,1.608-3.798,2.207
			c-1.306,0.598-2.56,0.899-3.756,0.899c-2.015,0-3.429-0.627-4.246-1.881c-0.818-1.248-1.228-2.664-1.228-4.242
			c0-2.234,0.709-4.699,2.124-7.389c1.414-2.696,3.21-5.228,5.388-7.598c2.175-2.367,4.543-4.339,7.103-5.92
			c2.56-1.576,4.979-2.367,7.266-2.367c1.088,0,2.042,0.148,2.856,0.445c0.818,0.301,1.496,0.711,2.042,1.225
			c0.542,0.518,0.969,1.104,1.266,1.756c0.297,0.651,0.533,1.336,0.696,2.043h0.161L184.798-117.858z M158.881-92.016
			c0.515,0.68,1.235,1.021,2.162,1.021c0.924,0,2.015-0.341,3.262-1.021c1.251-0.68,2.56-1.594,3.923-2.736
			c1.356-1.142,2.708-2.462,4.037-3.96c1.336-1.495,2.517-3.089,3.553-4.776c1.033-1.686,1.878-3.401,2.529-5.145
			c0.654-1.743,0.984-3.401,0.984-4.982c0-1.251-0.357-2.205-1.063-2.857c-0.709-0.653-1.581-0.98-2.613-0.977
			c-1.636,0-3.456,0.706-5.474,2.12c-2.014,1.417-3.916,3.226-5.712,5.432c-1.799,2.202-3.305,4.643-4.531,7.309
			c-1.224,2.67-1.832,5.229-1.832,7.675C158.105-93.66,158.359-92.695,158.881-92.016z"/>
		<path fill="#5A5A5A" d="M90.989-110.741c-1.634,2.611-3.524,5.214-5.675,7.797c-2.15,2.585-4.504,4.914-7.06,6.98
			c-2.56,2.07-5.349,3.744-8.368,5.024c-3.021,1.278-6.247,1.917-9.676,1.917c-1.306,0-2.532,0.15-3.674-0.179
			c-1.146-0.324-2.137-0.813-2.979-1.467c-0.844-0.654-1.527-1.483-2.045-2.49c-0.515-1.009-0.775-2.191-0.775-3.553
			c0-1.416,0.464-2.694,1.388-3.836c0.925-1.145,2.176-1.717,3.758-1.717c0.812,0,1.48,0.203,1.999,0.612
			c0.514,0.409,0.772,1.022,0.775,1.838c0,0.763-0.19,1.413-0.572,1.959c-0.383,0.545-0.954,0.816-1.714,0.816
			c-0.6,0-1.072-0.165-1.43-0.489c-0.353-0.327-0.585-0.733-0.693-1.227c-0.6,0.327-1.008,0.804-1.227,1.431
			c-0.216,0.627-0.324,1.265-0.324,1.918c0,1.905,0.724,3.333,2.165,4.286C56.306-90.167,57.926-90,59.722-90
			c1.142,0,2.136-0.231,2.98-0.693c0.842-0.463,1.551-1.063,2.123-1.796c0.569-0.736,0.99-1.593,1.263-2.572
			c0.271-0.979,0.409-1.961,0.407-2.941c0-1.03-0.177-2.108-0.528-3.224c-0.355-1.116-0.751-2.217-1.186-3.307
			c-0.438-1.089-0.844-2.163-1.227-3.224c-0.38-1.06-0.572-2.055-0.572-2.978c0-1.198,0.247-2.276,0.734-3.229
			c0.49-0.951,1.154-1.755,2-2.408c0.844-0.654,1.81-1.156,2.9-1.512c1.087-0.351,2.23-0.53,3.427-0.53
			c2.177,0,3.947,0.476,5.31,1.428c1.36,0.953,2.04,2.219,2.04,3.794c0,1.42-0.53,2.45-1.59,3.103
			c-1.063,0.655-2.246,0.979-3.553,0.979c0.327-0.597,0.614-1.317,0.856-2.161c0.244-0.843,0.367-1.622,0.367-2.328
			c0-1.09-0.341-2.002-1.02-2.738c-0.683-0.731-1.647-1.101-2.9-1.101c-1.577,0.001-2.748,0.48-3.51,1.431
			c-0.764,0.951-1.142,2.111-1.142,3.471c0,1.196,0.204,2.339,0.611,3.428c0.409,1.087,0.885,2.179,1.43,3.264
			c0.492,1.092,0.94,2.207,1.348,3.348c0.409,1.146,0.612,2.426,0.612,3.837c0,1.035-0.23,2.029-0.692,2.98
			c-0.462,0.956-1.075,1.825-1.837,2.614c-0.762,0.792-1.62,1.458-2.573,2c-0.951,0.544-1.917,0.9-2.896,1.062l0.163,0.165
			c2.941-0.327,5.741-1.186,8.409-2.576c2.667-1.39,5.157-3.074,7.471-5.064c2.312-1.984,4.449-4.165,6.407-6.532
			c1.96-2.37,3.674-4.696,5.145-6.981L90.989-110.741z"/>
	</g>
	<path fill="#5A5A5A" d="M13.082-102.419c7.475,1.213,15.919,1.649,24.809,1.077c14.357-0.919,22.892-2.358,36.361-7.766
		l3.242-0.798c-0.076,0.041-0.153,0.082-0.231,0.12c-9.808,4.897-23.422,8.332-37.92,9.26c-9.971,0.638-19.406,0.086-27.589-1.399
		l-0.071-0.014c-8.377-1.432-14.754-8.727-14.754-17.517c0-9.815,7.959-17.774,17.772-17.774c8.149,0,15.017,5.48,17.115,12.96
		l-0.68,0.162c-2.258-6.366-8.332-10.923-15.471-10.923c-9.065,0-16.41,7.347-16.41,16.41c0,8.168,5.964,14.939,13.776,16.202
		H13.082z"/>
	<path fill="#5A5A5A" d="M11.854-102.628"/>
	<g>
		<path fill="#5A5A5A" d="M-1.031-70.718c0.962-0.017,1.938,0.074,2.868,0.321c0.518,0.165,0.932,0.477,1.229,0.919
			c0.297,0.427,0.443,0.904,0.428,1.404c-0.045,0.859-0.444,1.49-1.184,1.908c-0.384,0.223-0.77,0.371-1.18,0.445
			c0.396,0.086,0.796,0.208,1.195,0.365c0.608,0.267,1.08,0.698,1.434,1.262c0.222,0.398,0.341,0.83,0.341,1.284
			c0,0.589-0.178,1.11-0.519,1.583c-0.648,0.766-1.478,1.18-2.467,1.229c-0.563,0.041-1.11,0.068-1.671,0.068h-4.422v-0.383h0.371
			c0.266,0.017,0.544-0.025,0.827-0.13c0.251-0.194,0.385-0.435,0.385-0.77v-8.222c0-0.203-0.073-0.41-0.222-0.604
			c-0.103-0.07-0.194-0.148-0.311-0.194c-0.237-0.047-0.458-0.073-0.678-0.073h-0.357v-0.414H-1.031z M-2.495-61.197
			c-0.017,0.249,0.044,0.439,0.178,0.623c0.089,0.102,0.193,0.172,0.327,0.192c0.19,0.058,0.412,0.086,0.647,0.069h0.651
			c0.844,0.052,1.686-0.101,2.486-0.412c0.383-0.153,0.681-0.385,0.931-0.753c0.252-0.415,0.356-0.874,0.356-1.364
			c0-0.896-0.37-1.595-1.14-2.094c-0.384-0.228-0.784-0.356-1.213-0.432c-0.326-0.042-0.666-0.059-0.99-0.059h-2.234V-61.197z
			 M-0.26-65.822c0.649,0.012,1.255-0.153,1.818-0.494c0.62-0.418,0.947-0.992,0.975-1.745c-0.014-0.5-0.147-0.946-0.429-1.374
			c-0.323-0.383-0.752-0.636-1.243-0.727c-0.575-0.102-1.153-0.158-1.714-0.144h-0.489c-0.281-0.014-0.561,0.026-0.797,0.118
			c-0.25,0.177-0.372,0.444-0.355,0.739v3.625H-0.26z"/>
		<path fill="#5A5A5A" d="M11.19-64.759c0.222-0.566,0.516-1.08,0.915-1.569c0.386-0.536,0.888-0.799,1.538-0.828
			c0.398,0,0.71,0.13,0.989,0.414c0.164,0.209,0.253,0.427,0.265,0.711c0,0.209-0.073,0.356-0.22,0.458
			c-0.103,0.102-0.238,0.147-0.381,0.147c-0.167,0.017-0.313-0.059-0.432-0.208c-0.118-0.106-0.176-0.221-0.161-0.383
			c-0.015-0.107,0.014-0.209,0.073-0.311c0.045-0.044,0.074-0.089,0.087-0.164c-0.014-0.042-0.028-0.071-0.077-0.118
			c-0.117-0.061-0.234-0.087-0.354-0.087c-0.487,0.042-0.855,0.27-1.138,0.652c-0.426,0.532-0.737,1.124-0.988,1.743
			c-0.134,0.324-0.239,0.633-0.339,0.962v2.244c-0.016,0.195,0.028,0.338,0.117,0.473c0.104,0.12,0.222,0.209,0.368,0.254
			c0.133,0.044,0.268,0.072,0.431,0.056h0.412v0.383H8.825v-0.383h0.398c0.252,0.017,0.475-0.042,0.665-0.175
			c0.074-0.061,0.134-0.135,0.178-0.236c0.06-0.121,0.088-0.235,0.088-0.371v-4.539c0.015-0.221-0.073-0.424-0.235-0.604
			c-0.179-0.101-0.401-0.162-0.638-0.153H8.943l-0.134-0.397l2.161-0.309v2.929C11.042-64.364,11.114-64.565,11.19-64.759z"/>
		<path fill="#5A5A5A" d="M19.4-66.734l2.056-0.304v5.942c-0.015,0.195,0.029,0.338,0.13,0.473c0.106,0.12,0.208,0.209,0.342,0.254
			c0.148,0.044,0.295,0.072,0.442,0.056h0.384v0.383h-3.413v-0.383h0.369c0.221,0.017,0.456-0.042,0.682-0.175
			c0.073-0.061,0.117-0.135,0.161-0.236c0.045-0.121,0.073-0.235,0.073-0.371v-4.478c0.015-0.221-0.073-0.435-0.221-0.606
			c-0.206-0.101-0.43-0.16-0.635-0.148h-0.254L19.4-66.734z M21.368-70.797c0.133,0.118,0.206,0.268,0.206,0.46
			c0,0.229-0.089,0.373-0.251,0.501c-0.133,0.151-0.28,0.228-0.458,0.208c-0.223,0.02-0.383-0.069-0.507-0.25
			c-0.143-0.132-0.2-0.268-0.189-0.459c-0.011-0.206,0.062-0.382,0.238-0.501c0.118-0.13,0.279-0.209,0.471-0.209
			C21.072-71.047,21.235-70.955,21.368-70.797z"/>
		<path fill="#5A5A5A" d="M32.521-61.096c-0.285,0.338-0.579,0.653-0.936,0.889c-0.396,0.25-0.824,0.383-1.313,0.365
			c-0.829-0.009-1.492-0.365-1.964-1.036c-0.551-0.745-0.787-1.592-0.757-2.523c-0.042-1.049,0.253-1.979,0.872-2.809
			c0.297-0.353,0.651-0.621,1.096-0.799c0.264-0.088,0.562-0.135,0.842-0.147c0.575,0,1.081,0.177,1.507,0.572
			c0.223,0.244,0.444,0.507,0.653,0.789v-3.606c0.014-0.227-0.076-0.435-0.236-0.608c-0.194-0.099-0.4-0.151-0.635-0.136H31.41
			l-0.118-0.411l2.025-0.308v9.544c-0.012,0.253,0.059,0.442,0.224,0.61c0.188,0.135,0.397,0.179,0.636,0.142h0.266v0.401
			l-1.923,0.324V-61.096z M32.521-64.801c-0.162-0.433-0.385-0.844-0.653-1.207c-0.368-0.419-0.813-0.662-1.343-0.689
			c-0.427,0.015-0.812,0.145-1.108,0.399c-0.401,0.364-0.653,0.785-0.785,1.284c-0.133,0.503-0.195,1.021-0.179,1.524
			c-0.042,0.814,0.118,1.579,0.476,2.292c0.146,0.32,0.395,0.574,0.724,0.736c0.251,0.137,0.517,0.2,0.782,0.179
			c1.008-0.086,1.684-0.604,2.087-1.566V-64.801z"/>
		<path fill="#5A5A5A" d="M43.052-64.511c0-0.41-0.027-0.814-0.134-1.243c-0.074-0.264-0.207-0.485-0.427-0.664
			c-0.341-0.221-0.71-0.339-1.124-0.325c-0.415,0.032-0.799,0.159-1.152,0.371c-0.148,0.106-0.268,0.206-0.37,0.327
			c-0.089,0.102-0.131,0.206-0.146,0.324c0.015,0.104,0.057,0.208,0.146,0.282c0.132,0.156,0.174,0.321,0.174,0.53
			c0,0.177-0.042,0.311-0.161,0.398c-0.103,0.12-0.251,0.176-0.412,0.176c-0.182,0-0.327-0.068-0.43-0.218
			c-0.136-0.133-0.192-0.313-0.179-0.536c0.015-0.424,0.179-0.793,0.489-1.137c0.297-0.357,0.665-0.616,1.122-0.783
			c0.324-0.118,0.68-0.173,1.034-0.189c0.768-0.017,1.407,0.233,1.925,0.781c0.323,0.518,0.487,1.092,0.441,1.713v3.421
			c-0.015,0.235,0,0.438,0.046,0.661c0.039,0.254,0.176,0.386,0.412,0.398c0.339-0.025,0.594-0.206,0.784-0.5l0.354,0.251
			c-0.134,0.16-0.294,0.289-0.459,0.425c-0.233,0.206-0.534,0.313-0.855,0.332c-0.373,0.009-0.651-0.135-0.858-0.432
			c-0.147-0.207-0.223-0.475-0.223-0.739c-0.37,0.292-0.736,0.562-1.124,0.78c-0.473,0.265-0.987,0.4-1.523,0.391
			c-0.442,0-0.857-0.107-1.225-0.315c-0.251-0.135-0.429-0.324-0.518-0.592c-0.117-0.235-0.177-0.473-0.164-0.751
			c0.033-0.783,0.383-1.389,1.082-1.819c0.413-0.254,0.871-0.443,1.374-0.563c0.681-0.194,1.375-0.279,2.099-0.324V-64.511z
			 M40.671-63.222c-0.43,0.164-0.783,0.429-1.063,0.767c-0.194,0.311-0.28,0.633-0.268,0.978c-0.028,0.429,0.108,0.768,0.444,1.046
			c0.209,0.181,0.458,0.247,0.756,0.247c0.501,0,0.975-0.141,1.417-0.453c0.403-0.221,0.754-0.504,1.095-0.841v-2.218
			C42.226-63.65,41.441-63.49,40.671-63.222z"/>
		<path fill="#5A5A5A" d="M49.045-70.718l2.144-0.342v9.951c-0.011,0.177,0.034,0.324,0.135,0.459
			c0.089,0.12,0.193,0.208,0.325,0.248c0.15,0.047,0.297,0.078,0.443,0.064h0.387v0.409h-3.434v-0.409h0.385
			c0.225,0.014,0.447-0.044,0.665-0.177c0.074-0.059,0.12-0.135,0.165-0.223c0.044-0.12,0.076-0.238,0.076-0.371v-8.444
			c0.012-0.248-0.076-0.442-0.222-0.592c-0.209-0.099-0.418-0.159-0.621-0.143h-0.327L49.045-70.718z"/>
		<path fill="#5A5A5A" d="M71.31-63.549l-0.724,1.926c-0.103,0.204-0.15,0.439-0.15,0.674c0,0.151,0.061,0.298,0.165,0.433
			c0.236,0.161,0.503,0.233,0.785,0.203h0.321v0.383h-3.283v-0.383c0.344,0.017,0.683-0.069,0.977-0.262
			c0.342-0.283,0.577-0.623,0.695-1.038l3.623-9.313h0.412l3.506,9.448c0.1,0.265,0.236,0.501,0.415,0.71
			c0.204,0.236,0.456,0.365,0.751,0.412c0.151,0.03,0.297,0.042,0.444,0.042v0.383h-3.755v-0.383h0.384
			c0.311,0.052,0.606-0.042,0.877-0.254c0.039-0.069,0.069-0.157,0.069-0.263c-0.013-0.146-0.043-0.291-0.069-0.453l-0.846-2.265
			H71.31z M73.658-69.581l-2.188,5.631h4.257L73.658-69.581z"/>
		<path fill="#5A5A5A" d="M89.889-61.602c-0.179,0.46-0.431,0.863-0.769,1.199c-0.534,0.522-1.184,0.772-1.955,0.744
			c-0.914,0.011-1.653-0.356-2.187-1.099c-0.298-0.383-0.486-0.811-0.591-1.303c-0.105-0.384-0.163-0.793-0.146-1.225
			c-0.046-1.183,0.338-2.2,1.167-3.054c0.53-0.503,1.153-0.741,1.891-0.757c0.548-0.021,1.051,0.1,1.538,0.415
			c0.267,0.207,0.488,0.456,0.638,0.766c0.101,0.223,0.157,0.477,0.175,0.744c0,0.191-0.074,0.371-0.191,0.5
			c-0.103,0.107-0.237,0.147-0.383,0.135c-0.162,0-0.296-0.051-0.4-0.18c-0.119-0.118-0.18-0.254-0.161-0.412
			c-0.019-0.18,0.059-0.356,0.19-0.515c0.044-0.059,0.061-0.136,0.061-0.21c-0.017-0.282-0.148-0.484-0.385-0.62
			c-0.298-0.151-0.621-0.222-0.948-0.207c-0.621,0.012-1.12,0.265-1.523,0.739c-0.28,0.385-0.484,0.8-0.591,1.271
			c-0.133,0.441-0.175,0.901-0.175,1.345c0,0.71,0.133,1.374,0.411,2.008c0.164,0.371,0.385,0.654,0.711,0.889
			c0.297,0.206,0.647,0.312,1.005,0.3c0.653,0.024,1.185-0.194,1.613-0.682c0.248-0.297,0.457-0.638,0.592-1.01L89.889-61.602z"/>
		<path fill="#5A5A5A" d="M100.592-61.602c-0.173,0.46-0.427,0.863-0.763,1.199c-0.54,0.522-1.182,0.772-1.954,0.744
			c-0.918,0.011-1.656-0.356-2.188-1.099c-0.297-0.383-0.489-0.811-0.587-1.303c-0.104-0.384-0.167-0.793-0.151-1.225
			c-0.043-1.183,0.339-2.2,1.17-3.054c0.527-0.503,1.148-0.741,1.894-0.757c0.545-0.021,1.045,0.1,1.535,0.415
			c0.264,0.207,0.487,0.456,0.633,0.766c0.104,0.223,0.164,0.477,0.182,0.744c0,0.191-0.078,0.371-0.196,0.5
			c-0.101,0.107-0.236,0.147-0.382,0.135c-0.163,0-0.297-0.051-0.399-0.18c-0.121-0.118-0.182-0.254-0.161-0.412
			c-0.021-0.18,0.058-0.356,0.188-0.515c0.042-0.059,0.061-0.136,0.061-0.21c-0.019-0.282-0.151-0.484-0.388-0.62
			c-0.294-0.151-0.618-0.222-0.945-0.207c-0.618,0.012-1.124,0.265-1.521,0.739c-0.278,0.385-0.487,0.8-0.594,1.271
			c-0.132,0.441-0.171,0.901-0.171,1.345c0,0.71,0.13,1.374,0.41,2.008c0.161,0.371,0.382,0.654,0.712,0.889
			c0.291,0.206,0.648,0.312,0.999,0.3c0.651,0.024,1.188-0.194,1.615-0.682c0.251-0.297,0.457-0.638,0.59-1.01L100.592-61.602z"/>
		<path fill="#5A5A5A" d="M107.285-61.405c0.161,0.4,0.397,0.695,0.755,0.932c0.366,0.236,0.781,0.342,1.241,0.307
			c0.667,0.018,1.224-0.203,1.685-0.711c0.248-0.35,0.472-0.735,0.647-1.16l0.4,0.204c-0.194,0.514-0.476,0.956-0.842,1.36
			c-0.563,0.53-1.224,0.798-1.984,0.757c-1.036,0.058-1.829-0.315-2.438-1.096c-0.323-0.385-0.529-0.81-0.63-1.302
			c-0.108-0.414-0.139-0.83-0.121-1.259c-0.045-1.165,0.306-2.173,1.078-3.027c0.558-0.533,1.227-0.766,2.012-0.755
			c1.062-0.026,1.851,0.422,2.335,1.361c0.339,0.739,0.503,1.521,0.518,2.332h-5.085C106.855-62.736,106.985-62.061,107.285-61.405z
			 M110.993-63.864c-0.043-0.559-0.146-1.108-0.31-1.667c-0.133-0.412-0.382-0.75-0.724-1.021c-0.264-0.182-0.548-0.251-0.839-0.236
			c-0.561-0.015-1.023,0.179-1.405,0.562c-0.552,0.695-0.833,1.495-0.846,2.362H110.993z"/>
		<path fill="#5A5A5A" d="M117.759-62.5c0.085,0.462,0.264,0.887,0.542,1.272c0.209,0.327,0.5,0.562,0.86,0.739
			c0.4,0.227,0.827,0.322,1.272,0.304c0.396,0.018,0.784-0.077,1.123-0.319c0.37-0.294,0.546-0.665,0.53-1.139
			c0.016-0.312-0.042-0.579-0.173-0.843c-0.193-0.236-0.427-0.386-0.696-0.459c-0.388-0.102-0.754-0.206-1.111-0.277
			c-0.487-0.072-0.96-0.179-1.418-0.327c-0.769-0.282-1.142-0.815-1.153-1.615c0-0.59,0.224-1.063,0.693-1.446
			c0.46-0.416,1.006-0.605,1.626-0.605c0.343,0,0.67,0.059,0.994,0.189c0.215,0.092,0.43,0.195,0.62,0.292
			c0.058,0.052,0.118,0.079,0.194,0.079c0.218-0.079,0.333-0.219,0.382-0.463h0.236l0.264,2.282l-0.354,0.118
			c-0.073-0.454-0.219-0.855-0.488-1.239c-0.215-0.27-0.473-0.46-0.781-0.605c-0.33-0.171-0.696-0.254-1.051-0.268
			c-0.352,0.014-0.709,0.12-1.006,0.322c-0.442,0.282-0.647,0.686-0.663,1.183c0,0.458,0.206,0.787,0.636,0.978
			c0.488,0.218,0.991,0.354,1.523,0.415c0.53,0.068,1.048,0.221,1.536,0.414c0.267,0.162,0.503,0.368,0.693,0.646
			c0.151,0.344,0.239,0.715,0.225,1.08c0,0.435-0.118,0.816-0.361,1.142c-0.278,0.4-0.645,0.652-1.09,0.771
			c-0.278,0.07-0.533,0.115-0.8,0.103c-0.409,0-0.827-0.074-1.211-0.221c-0.291-0.121-0.561-0.252-0.843-0.371
			c-0.072-0.034-0.148-0.045-0.209-0.062c-0.263,0.106-0.441,0.283-0.518,0.551h-0.248l-0.088-2.489L117.759-62.5z"/>
		<path fill="#5A5A5A" d="M128.45-62.5c0.091,0.462,0.264,0.887,0.546,1.272c0.209,0.327,0.506,0.562,0.856,0.739
			c0.403,0.227,0.83,0.322,1.275,0.304c0.399,0.018,0.781-0.077,1.124-0.319c0.372-0.294,0.548-0.665,0.529-1.139
			c0.019-0.312-0.042-0.579-0.179-0.843c-0.185-0.236-0.424-0.386-0.693-0.459c-0.382-0.102-0.754-0.206-1.111-0.277
			c-0.487-0.072-0.957-0.179-1.414-0.327c-0.77-0.282-1.143-0.815-1.157-1.615c0-0.59,0.224-1.063,0.699-1.446
			c0.458-0.416,1.003-0.605,1.624-0.605c0.342,0,0.663,0.059,0.993,0.189c0.221,0.092,0.43,0.195,0.618,0.292
			c0.063,0.052,0.121,0.079,0.19,0.079c0.221-0.079,0.346-0.219,0.388-0.463h0.239l0.261,2.282l-0.349,0.118
			c-0.079-0.454-0.224-0.855-0.497-1.239c-0.215-0.27-0.469-0.46-0.781-0.605c-0.32-0.171-0.69-0.254-1.048-0.268
			c-0.354,0.014-0.712,0.12-1.006,0.322c-0.438,0.282-0.65,0.686-0.666,1.183c0,0.458,0.209,0.787,0.636,0.978
			c0.491,0.218,0.994,0.354,1.524,0.415c0.532,0.068,1.051,0.221,1.535,0.414c0.267,0.162,0.509,0.368,0.696,0.646
			c0.148,0.344,0.239,0.715,0.222,1.08c0,0.435-0.115,0.816-0.354,1.142c-0.282,0.4-0.648,0.652-1.094,0.771
			c-0.275,0.07-0.53,0.115-0.8,0.103c-0.408,0-0.823-0.074-1.211-0.221c-0.297-0.121-0.561-0.252-0.842-0.371
			c-0.073-0.034-0.148-0.045-0.209-0.062c-0.261,0.106-0.439,0.283-0.516,0.551h-0.254l-0.085-2.489L128.45-62.5z"/>
		<path fill="#5A5A5A" d="M143.262-66.61c0.512,0.329,0.893,0.788,1.172,1.327c0.287,0.579,0.433,1.189,0.433,1.835
			c0,0.654-0.146,1.272-0.433,1.863c-0.279,0.551-0.66,0.99-1.172,1.334c-0.506,0.307-1.039,0.474-1.63,0.474
			c-0.605,0-1.154-0.167-1.653-0.474c-0.519-0.344-0.921-0.783-1.185-1.334c-0.297-0.59-0.442-1.225-0.431-1.896
			c-0.012-0.63,0.134-1.237,0.431-1.802c0.264-0.539,0.666-0.998,1.185-1.327c0.512-0.336,1.09-0.487,1.711-0.487
			C142.25-67.081,142.786-66.934,143.262-66.61z M139.872-65.634c-0.412,0.685-0.594,1.402-0.575,2.187
			c-0.019,0.576,0.085,1.127,0.29,1.655c0.183,0.473,0.479,0.892,0.86,1.183c0.321,0.297,0.739,0.426,1.185,0.426
			c0.767-0.041,1.345-0.391,1.744-1.077c0.222-0.362,0.367-0.777,0.461-1.208c0.069-0.324,0.097-0.668,0.097-1.012
			c0-0.554-0.097-1.084-0.291-1.62c-0.193-0.458-0.476-0.842-0.856-1.18c-0.357-0.271-0.77-0.401-1.23-0.417
			C140.799-66.638,140.241-66.281,139.872-65.634z"/>
		<path fill="#5A5A5A" d="M151.732-64.759c0.225-0.566,0.519-1.08,0.918-1.569c0.388-0.536,0.891-0.799,1.539-0.828
			c0.399,0,0.708,0.13,0.99,0.414c0.163,0.209,0.251,0.427,0.267,0.711c0,0.209-0.073,0.356-0.228,0.458
			c-0.097,0.102-0.233,0.147-0.382,0.147c-0.157,0.017-0.312-0.059-0.43-0.208c-0.118-0.106-0.173-0.221-0.161-0.383
			c-0.012-0.107,0.016-0.209,0.073-0.311c0.045-0.044,0.079-0.089,0.088-0.164c-0.009-0.042-0.03-0.071-0.069-0.118
			c-0.118-0.061-0.239-0.087-0.354-0.087c-0.488,0.042-0.86,0.27-1.139,0.652c-0.428,0.532-0.742,1.124-0.994,1.743
			c-0.13,0.324-0.239,0.633-0.339,0.962v2.244c-0.013,0.195,0.033,0.338,0.115,0.473c0.105,0.12,0.224,0.209,0.372,0.254
			c0.137,0.044,0.267,0.072,0.431,0.056h0.415v0.383h-3.478v-0.383h0.406c0.245,0.017,0.472-0.042,0.663-0.175
			c0.066-0.061,0.127-0.135,0.173-0.236c0.063-0.121,0.091-0.235,0.091-0.371v-4.539c0.015-0.221-0.073-0.424-0.233-0.604
			c-0.185-0.101-0.406-0.162-0.643-0.153h-0.333l-0.143-0.397l2.163-0.309v2.929C151.584-64.364,151.663-64.565,151.732-64.759z"/>
		<path fill="#5A5A5A" d="M160.24-66.734l2.054-0.304v5.942c-0.015,0.195,0.03,0.338,0.134,0.473
			c0.105,0.12,0.209,0.209,0.342,0.254c0.146,0.044,0.297,0.072,0.442,0.056h0.385v0.383h-3.417v-0.383h0.373
			c0.221,0.017,0.46-0.042,0.678-0.175c0.073-0.061,0.118-0.135,0.167-0.236c0.042-0.121,0.069-0.235,0.069-0.371v-4.478
			c0.016-0.221-0.069-0.435-0.221-0.606c-0.209-0.101-0.427-0.16-0.639-0.148h-0.249L160.24-66.734z M162.203-70.797
			c0.137,0.118,0.212,0.268,0.212,0.46c0,0.229-0.091,0.373-0.251,0.501c-0.134,0.151-0.279,0.228-0.461,0.208
			c-0.221,0.02-0.381-0.069-0.499-0.25c-0.148-0.132-0.206-0.268-0.191-0.459c-0.015-0.206,0.052-0.382,0.233-0.501
			c0.118-0.13,0.278-0.209,0.476-0.209C161.912-71.047,162.076-70.955,162.203-70.797z"/>
		<path fill="#5A5A5A" d="M169.32-61.405c0.164,0.4,0.4,0.695,0.755,0.932c0.375,0.236,0.784,0.342,1.244,0.307
			c0.664,0.018,1.228-0.203,1.688-0.711c0.251-0.35,0.473-0.735,0.651-1.16l0.394,0.204c-0.19,0.514-0.47,0.956-0.836,1.36
			c-0.566,0.53-1.232,0.798-1.984,0.757c-1.038,0.058-1.832-0.315-2.44-1.096c-0.324-0.385-0.53-0.81-0.633-1.302
			c-0.106-0.414-0.137-0.83-0.122-1.259c-0.042-1.165,0.312-2.173,1.082-3.027c0.56-0.533,1.227-0.766,2.008-0.755
			c1.066-0.026,1.854,0.422,2.338,1.361c0.34,0.739,0.5,1.521,0.519,2.332h-5.089C168.894-62.736,169.027-62.061,169.32-61.405z
			 M173.034-63.864c-0.043-0.559-0.146-1.108-0.312-1.667c-0.133-0.412-0.381-0.75-0.724-1.021c-0.27-0.182-0.548-0.251-0.845-0.236
			c-0.561-0.015-1.018,0.179-1.399,0.562c-0.548,0.695-0.827,1.495-0.845,2.362H173.034z"/>
		<path fill="#5A5A5A" d="M178.616-62.5c0.085,0.462,0.264,0.887,0.542,1.272c0.212,0.327,0.503,0.562,0.86,0.739
			c0.402,0.227,0.827,0.322,1.269,0.304c0.4,0.018,0.788-0.077,1.127-0.319c0.369-0.294,0.545-0.665,0.533-1.139
			c0.012-0.312-0.046-0.579-0.179-0.843c-0.194-0.236-0.427-0.386-0.693-0.459c-0.388-0.102-0.758-0.206-1.108-0.277
			c-0.488-0.072-0.964-0.179-1.421-0.327c-0.775-0.282-1.139-0.815-1.154-1.615c0-0.59,0.225-1.063,0.694-1.446
			c0.46-0.416,1.008-0.605,1.629-0.605c0.333,0,0.663,0.059,0.987,0.189c0.219,0.092,0.431,0.195,0.621,0.292
			c0.058,0.052,0.118,0.079,0.194,0.079c0.221-0.079,0.336-0.219,0.384-0.463h0.236l0.267,2.282l-0.357,0.118
			c-0.069-0.454-0.218-0.855-0.484-1.239c-0.221-0.27-0.476-0.46-0.781-0.605c-0.33-0.171-0.696-0.254-1.054-0.268
			c-0.354,0.014-0.709,0.12-1.009,0.322c-0.445,0.282-0.646,0.686-0.66,1.183c0,0.458,0.202,0.787,0.636,0.978
			c0.484,0.218,0.99,0.354,1.521,0.415c0.53,0.068,1.048,0.221,1.535,0.414c0.27,0.162,0.503,0.368,0.697,0.646
			c0.146,0.344,0.236,0.715,0.227,1.08c0,0.435-0.121,0.816-0.36,1.142c-0.278,0.4-0.651,0.652-1.09,0.771
			c-0.285,0.07-0.536,0.115-0.803,0.103c-0.415,0-0.827-0.074-1.209-0.221c-0.303-0.121-0.563-0.252-0.842-0.371
			c-0.075-0.034-0.154-0.045-0.212-0.062c-0.264,0.106-0.442,0.283-0.515,0.551h-0.252l-0.091-2.489L178.616-62.5z"/>
	</g>
</g>
</svg>
